<svg width="156" height="157" viewBox="0 0 156 157" fill="none" xmlns="http://www.w3.org/2000/svg">
<g opacity="0.4" clip-path="url(#clip0_117_1456)">
<path fill-rule="evenodd" clip-rule="evenodd" d="M88.532 76.2154L81.8354 80.6517C80.9107 81.2642 80.6577 82.5103 81.2703 83.4349L85.7066 90.1316C87.5441 92.9053 91.2824 93.6645 94.0563 91.8269C96.83 89.9893 97.5892 86.2511 95.7516 83.4771L91.3153 76.7805C90.7027 75.8558 89.4565 75.6029 88.532 76.2154Z" fill="#8DA1E6"/>
<path d="M56.1579 100.071C47.5109 87.0576 48.2039 69.9612 57.8758 57.6901C67.5477 45.419 84.0091 40.7512 98.6826 46.1185C113.356 51.4859 122.92 65.6737 122.392 81.2893L128.434 82.5161C128.661 82.2533 128.921 82.0211 129.207 81.8255C130.003 81.3019 130.961 81.0822 131.905 81.2068L132.7 80.68C133.527 80.042 133.698 78.8622 133.085 78.0165L94.2672 19.421L8.88516 75.9834L47.7025 134.579C48.2413 135.472 49.3918 135.776 50.3015 135.266L79.9056 115.654C79.634 115.608 79.3767 115.583 79.1018 115.532C69.6959 113.649 61.4339 108.082 56.1579 100.071ZM27.5523 79.7734L25.8571 88.1231C25.6204 89.1927 24.5703 89.8753 23.4967 89.6574C22.423 89.4394 21.7224 88.4013 21.9216 87.324L23.2174 80.9422L16.8355 79.6464C15.7659 79.4098 15.0833 78.3597 15.3012 77.2861C15.519 76.2125 16.5573 75.5118 17.6345 75.711L25.9842 77.4063C27.0708 77.6269 27.7728 78.6867 27.5523 79.7734ZM32.26 82.1782C31.6475 81.2535 31.9005 80.0075 32.8251 79.3949L39.5218 74.9586C40.4465 74.3461 41.6925 74.5991 42.3051 75.5237C42.9176 76.4484 42.6646 77.6944 41.74 78.307L35.0433 82.7433C34.1186 83.3558 32.8726 83.1028 32.26 82.1782Z" fill="#8DA1E6"/>
<path fill-rule="evenodd" clip-rule="evenodd" d="M81.8564 73.4114C80.9317 74.024 80.6788 75.27 81.2913 76.1947L84.6396 73.9765C84.0271 73.0519 82.781 72.7989 81.8564 73.4114Z" fill="#8DA1E6"/>
<path d="M86.5039 7.70112C85.9651 6.808 84.8146 6.50391 83.9049 7.01399L1.50273 61.6023C0.678107 62.2412 0.509596 63.4191 1.12186 64.2635L6.66722 72.6344L92.0493 16.072L86.5039 7.70112ZM9.47142 65.9589C8.54678 66.5715 7.30072 66.3185 6.68818 65.3938C6.07564 64.4692 6.32863 63.2231 7.25328 62.6106C8.17792 61.998 9.42398 62.251 10.0365 63.1757C10.6491 64.1003 10.3961 65.3464 9.47142 65.9589ZM16.1681 61.5226C15.2434 62.1352 13.9974 61.8822 13.3848 60.9575C12.7723 60.0329 13.0253 58.7868 13.9499 58.1743C14.8746 57.5617 16.1206 57.8147 16.7332 58.7394C17.3457 59.664 17.0927 60.9101 16.1681 61.5226ZM22.8648 57.0863C21.9401 57.6989 20.6941 57.4459 20.0815 56.5212C19.469 55.5966 19.722 54.3505 20.6466 53.738C21.5713 53.1255 22.8173 53.3785 23.4299 54.3031C24.0424 55.2277 23.7894 56.4738 22.8648 57.0863ZM86.8822 12.974C87.5958 13.106 88.1827 13.6129 88.4173 14.2998C88.6519 14.9866 88.4976 15.7466 88.0137 16.2876C87.5298 16.8286 86.7919 17.0664 86.0831 16.9097L85.2677 16.7442L85.1021 17.5596C84.8655 18.6292 83.8154 19.3117 82.7418 19.0939C81.6681 18.8759 80.9675 17.8378 81.1667 16.7605L81.3323 15.9451L80.5169 15.7796C79.4472 15.5429 78.7647 14.4928 78.9825 13.4192C79.2005 12.3455 80.2387 11.6449 81.3159 11.8442L82.1313 12.0097L82.2969 11.1943C82.4288 10.4806 82.9357 9.89373 83.6226 9.65915C84.3095 9.42458 85.0695 9.57889 85.6105 10.0628C86.1514 10.5466 86.3893 11.2846 86.2325 11.9934L86.067 12.8088L86.8822 12.974Z" fill="#8DA1E6"/>
<path fill-rule="evenodd" clip-rule="evenodd" d="M151.106 89.1694L131.426 85.1737L129.828 93.0445L149.508 97.0403C151.671 97.4281 153.756 96.0465 154.242 93.9039C154.683 91.7305 153.279 89.6111 151.106 89.1694Z" fill="#8DA1E6"/>
<path fill-rule="evenodd" clip-rule="evenodd" d="M122.019 85.3127C121.921 85.9752 121.846 86.6321 121.716 87.3013C121.585 87.9705 121.377 88.6075 121.215 89.2515L126.287 90.2828L127.088 86.3417L122.019 85.3127Z" fill="#8DA1E6"/>
<path d="M92.6843 48.6194C77.6618 45.5703 62.5775 53.5575 56.656 67.6965C50.7346 81.8356 55.6255 98.1883 68.3374 106.754C81.0494 115.32 98.0423 113.714 108.924 102.918C119.805 92.1211 121.545 75.1414 113.079 62.3628C108.38 55.2503 101.041 50.3042 92.6843 48.6194ZM113.847 85.7021C111.178 98.8468 99.5965 108.276 86.1839 108.224C72.7713 108.172 61.2635 98.652 58.698 85.4868C56.1325 72.3217 63.2243 59.1778 75.6359 54.0932C88.0476 49.0087 102.323 53.3998 109.731 64.5809C113.859 70.793 115.34 78.3945 113.847 85.7021Z" fill="#8DA1E6"/>
<path d="M91.0875 56.492C79.8207 54.2049 68.5069 60.1951 64.0657 70.7993C59.6244 81.4034 63.2924 93.6684 72.8265 100.093C82.3605 106.518 95.1053 105.313 103.266 97.2155C111.428 89.118 112.732 76.383 106.383 66.799C102.859 61.4651 97.354 57.7558 91.0875 56.492ZM66.6143 76.1109C67.6601 70.8862 70.7525 66.2971 75.2021 63.3663C76.1268 62.7537 77.3728 63.0067 77.9854 63.9314C78.5979 64.856 78.3449 66.1021 77.4203 66.7146C73.86 69.0588 71.3858 72.7302 70.5498 76.9101C70.3131 77.9797 69.2631 78.6623 68.1895 78.4444C67.1157 78.2263 66.4148 77.1881 66.6143 76.1109ZM101.339 77.3667L97.9906 79.5849L98.6405 80.566L103.392 81.5306C104.105 81.6626 104.692 82.1695 104.927 82.8564C105.161 83.5432 105.007 84.3032 104.523 84.8442C104.039 85.3852 103.301 85.623 102.593 85.4663L100.608 85.0634C101.307 88.9965 99.6047 92.9694 96.2744 95.1755C92.9441 97.3817 88.6217 97.4 85.2728 95.2224L84.8699 97.2069C84.6332 98.2765 83.5831 98.959 82.5095 98.7412C81.4359 98.5232 80.7353 97.4851 80.9345 96.4078L81.8991 91.6568L81.2492 90.6757L77.9008 92.8938C76.9762 93.5063 75.7301 93.2533 75.1176 92.3287C74.505 91.4041 74.758 90.158 75.6827 89.5455L79.031 87.3273L78.3811 86.3462L73.63 85.3816C72.5603 85.1449 71.8778 84.0948 72.0956 83.0212C72.3135 81.9476 73.3518 81.2469 74.429 81.4462L76.9563 81.9593C77.0279 80.7865 77.4418 79.6605 78.1472 78.7206L77.9431 78.4125C76.1055 75.6387 76.8644 71.9004 79.6383 70.0628C82.4121 68.2253 86.1504 68.9841 87.9881 71.7581L88.1922 72.0662C89.3321 71.783 90.53 71.8403 91.6378 72.2311L92.1509 69.7038C92.3876 68.6342 93.4378 67.9515 94.5113 68.1695C95.585 68.3875 96.2856 69.4256 96.0863 70.5029L95.1227 75.2555L95.7727 76.2366L99.121 74.0184C100.046 73.4059 101.292 73.6589 101.904 74.5835C102.517 75.5081 102.264 76.7542 101.339 77.3667Z" fill="#8DA1E6"/>
</g>
<defs>
<clipPath id="clip0_117_1456">
<rect width="112.46" height="112.46" fill="white" transform="translate(0.000183105 62.5747) rotate(-33.523)"/>
</clipPath>
</defs>
</svg>
