<svg width="308" height="294" viewBox="0 0 308 294" fill="none" xmlns="http://www.w3.org/2000/svg">
<path d="M106.791 85.6987C107.378 86.7138 107.578 87.9662 107.252 89.1847C106.925 90.4032 106.125 91.3876 105.11 91.9737C104.095 92.5597 102.86 92.7651 101.624 92.4339C100.406 92.1074 99.4212 91.3073 98.8351 90.2923C98.2491 89.2772 98.0484 88.0247 98.3749 86.8062C98.7014 85.5877 99.5014 84.6034 100.516 84.0173C101.532 83.4313 102.784 83.2306 104.003 83.5571C105.239 83.8883 106.205 84.6836 106.791 85.6987ZM79.7647 174.014C78.5462 173.688 77.2984 173.871 76.2833 174.457C75.2635 175.06 74.4682 176.027 74.1417 177.246C73.8105 178.482 74.0159 179.717 74.5972 180.749C75.1833 181.764 76.1724 182.547 77.3909 182.873C78.627 183.204 79.8571 183.017 80.8722 182.431C81.892 181.827 82.6873 180.86 83.0185 179.624C83.345 178.406 83.1396 177.171 82.5583 176.138C81.9722 175.123 81.0008 174.345 79.7647 174.014ZM91.886 128.777C90.6675 128.45 89.415 128.651 88.3999 129.237C87.3848 129.823 86.5848 130.807 86.2583 132.026C85.9271 133.262 86.1325 134.497 86.7185 135.512C87.3046 136.527 88.2889 137.327 89.5074 137.654C90.7436 137.985 91.9784 137.779 92.9935 137.193C94.0086 136.607 94.8039 135.641 95.1351 134.404C95.4616 133.186 95.2609 131.933 94.6749 130.918C94.0888 129.903 93.1221 129.108 91.886 128.777ZM124.341 181.466L105.309 252.498C103.203 260.357 98.1082 266.632 91.5747 270.389C85.0365 274.164 77.0606 275.44 69.2022 273.334C61.3261 271.224 55.0686 266.134 51.2997 259.597C47.5201 253.077 46.244 245.101 48.3512 237.237C50.0452 230.914 53.6387 225.65 58.3543 221.873C63.2062 217.987 69.2324 215.652 75.5639 215.38C78.4379 215.273 80.6544 212.864 80.5475 209.99C80.4183 207.129 78.0138 204.895 75.135 205.019C66.558 205.384 58.4076 208.512 51.8637 213.768C49.2204 215.886 46.8512 218.324 44.8093 221.07C43.2661 221.155 41.708 221.154 40.1313 221.034C37.8825 220.88 35.5696 220.493 33.2504 219.872C23.5377 217.269 15.7868 210.972 11.1329 202.911C6.46605 194.828 4.88446 184.978 7.48537 175.271C8.18252 172.67 9.14014 170.226 10.3241 167.95C11.4856 165.687 12.8467 163.598 14.389 161.727C14.5427 161.554 14.6964 161.38 14.8371 161.185C16.5173 158.846 15.9909 155.607 13.6525 153.927C8.28969 150.042 4.38827 143.647 2.40842 135.943C0.413011 128.109 0.426305 118.97 2.91208 109.693C5.39786 100.416 9.95549 92.4957 15.5944 86.7323C21.1657 81.0327 27.7358 77.4684 34.3241 76.7795L34.3289 76.7618C34.4384 76.7533 34.5511 76.733 34.6606 76.7245C37.4892 76.2458 39.3849 73.574 38.9121 70.747C38.4931 68.2373 38.3313 65.6388 38.4531 62.9711C38.5657 60.4083 38.9582 57.8132 39.6554 55.2114C42.2579 45.4987 48.5555 37.7478 56.634 33.0986C64.6995 28.427 74.5667 26.8502 84.2735 29.4511C86.5927 30.0725 88.7889 30.8944 90.8137 31.8849C92.2343 32.5873 93.5904 33.3419 94.8829 34.1929C95.2781 37.5921 96.1063 40.9055 97.3411 44.0439C100.38 51.8676 105.87 58.6697 113.116 63.2737C115.551 64.8032 118.747 64.0824 120.293 61.6575C121.818 59.2396 121.102 56.0256 118.672 54.4977C113.325 51.0964 109.269 46.079 107.01 40.2877C104.815 34.6586 104.34 28.2853 106.029 21.9809L106.034 21.9632C108.139 14.1048 113.229 7.84727 119.767 4.07242C126.306 0.297583 134.264 -0.98322 142.14 1.12717C149.998 3.23282 156.273 8.32746 160.042 14.8641C163.817 21.4023 165.093 29.3782 162.988 37.2366L143.955 108.268L131.605 104.959L133.916 96.3357C134.659 93.5631 133.007 90.7104 130.24 89.9691L117.761 86.6253C117.556 84.4444 116.883 82.365 115.804 80.505C113.887 77.1836 110.7 74.5948 106.698 73.5223C102.713 72.4545 98.6527 73.1017 95.3314 75.0192C92.01 76.9368 89.4036 80.1185 88.331 84.1213C87.2585 88.1241 87.9249 92.1827 89.8425 95.5041C91.7601 98.8254 94.9465 101.414 98.9375 102.484C102.94 103.556 106.994 102.907 110.316 100.99C112.174 99.9168 113.803 98.4542 115.07 96.6676L122.528 98.666L120.216 107.296C119.473 110.068 121.125 112.921 123.891 113.662L141.262 118.317L135.494 139.843L105.644 131.845C105.437 129.676 104.767 127.585 103.683 125.742C101.77 122.403 98.5839 119.815 94.5811 118.742C90.596 117.674 86.5362 118.321 83.2101 120.257C79.8887 122.174 77.2823 125.356 76.2129 129.347C75.1403 133.35 75.8068 137.408 77.7243 140.73C79.6419 144.051 82.8283 146.64 86.8194 147.709C90.8221 148.782 94.8761 148.133 98.1974 146.215C100.056 145.142 101.684 143.68 102.952 141.893L132.802 149.891L127.029 171.436L109.658 166.781C106.886 166.038 104.038 167.673 103.292 170.457L100.984 179.069L93.526 177.071C93.317 174.907 92.6486 172.81 91.565 170.968C89.6474 167.647 86.4657 165.04 82.4629 163.968C78.4778 162.9 74.4133 163.565 71.0919 165.482C67.7706 167.4 65.1641 170.581 64.0947 174.572C63.0222 178.575 63.6886 182.634 65.6062 185.955C67.5238 189.277 70.7102 191.865 74.7012 192.935C78.704 194.007 82.7579 193.359 86.0792 191.441C87.9377 190.368 89.5662 188.905 90.8288 187.136L103.308 190.48C106.081 191.223 108.933 189.571 109.679 186.787L111.987 178.175L124.337 181.484L124.341 181.466ZM50.3039 122.392C51.9048 116.417 54.8256 111.332 58.44 107.638C61.916 104.084 65.9864 101.844 70.0467 101.43C72.8942 101.139 74.9727 98.5859 74.6837 95.7325C74.3931 92.8849 71.8396 90.8064 68.9862 91.0954C62.4603 91.7632 56.1613 95.1164 51.0066 100.391C46.1785 105.318 42.3251 111.977 40.2541 119.705C38.18 127.446 38.194 135.141 39.9089 141.808C41.7265 148.964 45.5259 155.01 50.8318 158.848C53.1526 160.524 56.409 160.002 58.0845 157.681C59.76 155.361 59.2382 152.104 56.9175 150.429C53.6079 148.04 51.2016 144.071 49.9701 139.249C48.6842 134.229 48.703 128.367 50.3039 122.392ZM307.519 176.877C307.355 176.474 307.044 176.107 306.623 175.817L290.108 165.095C288.282 163.906 286.84 162.34 285.849 160.503C284.873 158.683 284.345 156.63 284.361 154.451C284.391 149.204 284.052 143.997 283.376 138.844C282.687 133.669 281.654 128.528 280.271 123.47C279.7 121.386 279.664 119.263 280.161 117.219C280.637 115.183 281.616 113.319 283.071 111.703L296.259 97.0474C296.616 96.6572 296.801 96.2272 296.866 95.7966C296.913 95.3613 296.803 94.9027 296.53 94.4384L283.925 72.607C283.667 72.1592 283.311 71.8369 282.912 71.6542C282.529 71.4822 282.042 71.44 281.526 71.554L262.261 75.641C260.139 76.0946 258.012 76.0042 256.006 75.4161C254.004 74.8103 252.168 73.7255 250.653 72.1774C246.964 68.4507 243.045 64.9908 238.903 61.8242C234.784 58.6446 230.421 55.7596 225.866 53.1449C223.973 52.0635 222.453 50.6025 221.37 48.8296C220.275 47.0535 219.628 45.0382 219.517 42.8633L218.494 23.1825C218.466 22.6764 218.3 22.2346 218.019 21.8943C217.738 21.554 217.344 21.2842 216.843 21.1502L209.685 19.2322L189.695 93.8371C204.407 99.0663 216.169 109.303 223.516 122.054C231.703 136.21 234.479 153.496 229.912 170.537C225.343 187.59 214.301 201.155 200.131 209.326C187.393 216.695 172.089 219.68 156.728 216.87L136.743 291.457L143.901 293.375C144.401 293.509 144.873 293.49 145.287 293.336C145.706 293.184 146.075 292.866 146.347 292.44L157.068 275.925C158.258 274.099 159.824 272.658 161.661 271.667C163.48 270.691 165.532 270.168 167.712 270.178C172.96 270.209 178.185 269.874 183.338 269.198C188.513 268.509 193.638 267.466 198.694 266.089C200.778 265.518 202.913 265.484 204.945 265.978C206.981 266.454 208.863 267.438 210.479 268.893L225.116 282.077C225.507 282.434 225.95 282.641 226.367 282.683C226.803 282.731 227.279 282.625 227.725 282.347L249.557 269.743C250.016 269.487 250.345 269.134 250.523 268.752C250.688 268.349 250.741 267.865 250.627 267.348L246.529 248.08C246.075 245.958 246.166 243.831 246.771 241.829C247.365 239.825 248.462 237.992 249.992 236.472C253.719 232.783 257.179 228.864 260.363 224.727C263.525 220.603 266.428 216.245 269.02 211.703C270.106 209.792 271.585 208.277 273.34 207.189C275.116 206.094 277.145 205.47 279.324 205.341L298.987 204.313C299.492 204.291 299.953 204.124 300.293 203.843C300.641 203.558 300.886 203.163 301.02 202.662L307.543 178.316C307.693 177.782 307.677 177.298 307.519 176.877ZM180.326 128.777L174.558 150.304L135.496 139.837L132.805 149.88L171.868 160.346L166.095 181.891L127.032 171.424L124.341 181.466L163.404 191.933L159.434 206.749C172.012 208.852 184.488 206.346 194.945 200.309C206.794 193.452 216.047 182.09 219.871 167.821C223.694 153.552 221.362 139.085 214.523 127.24C208.491 116.791 198.944 108.366 186.994 103.895L183.019 118.729L143.956 108.263L141.266 118.305L180.328 128.772L180.326 128.777Z" fill="#8DA1E6"/>
</svg>
