<svg width="114" height="115" viewBox="0 0 114 115" fill="none" xmlns="http://www.w3.org/2000/svg">
<g opacity="0.4" clip-path="url(#clip0_117_1475)">
<path d="M83.7541 70.9349C84.532 72.3236 84.7827 74.0135 84.3162 75.668C83.8488 77.3259 82.7533 78.6325 81.3636 79.4139C79.9714 80.1908 78.2864 80.4373 76.6319 79.9709C74.974 79.5035 73.6659 78.4131 72.8845 77.0234C72.1076 75.6312 71.8611 73.9463 72.3286 72.2883C72.7945 70.6356 73.888 69.3228 75.275 68.5444C76.6672 67.7675 78.3536 67.5158 80.0116 67.9832C81.6661 68.4496 82.9727 69.5451 83.7541 70.9349ZM99.0273 78.4548L98.3156 80.9791C98.1032 81.7325 97.4546 82.245 96.6708 82.2732L94.7156 82.348C94.1035 82.3722 93.5877 82.6728 93.2719 83.1947C92.5572 84.3538 91.7173 85.412 90.7756 86.359C90.3465 86.7909 90.1741 87.3626 90.2924 87.9601L90.674 89.8836C90.8293 90.6489 90.4818 91.3962 89.7993 91.7829L87.5092 93.0656C86.8282 93.4471 86.0105 93.3496 85.4328 92.8195L83.9919 91.4893C83.5474 91.0716 82.9681 90.9195 82.3742 91.0651C81.0765 91.3739 79.7337 91.5369 78.3734 91.5357C77.7614 91.5394 77.2362 91.8205 76.901 92.3313L75.8108 93.958C75.3773 94.6116 74.6065 94.8928 73.8496 94.6794L71.3253 93.9678C70.5718 93.7553 70.0584 93.1102 70.0297 92.3281L69.9549 90.373C69.9307 89.7609 69.6301 89.2451 69.1097 88.9241C67.9491 88.2145 66.8909 87.3746 65.9439 86.4329C65.512 86.0038 64.9418 85.8262 64.3428 85.9497L62.4193 86.3313C61.6532 86.4827 60.9067 86.1392 60.52 85.4567L59.2373 83.1666C58.8572 82.4804 58.9547 81.6627 59.4834 81.0902L60.8136 79.6492C61.2313 79.2048 61.3834 78.6254 61.2378 78.0315C60.929 76.7338 60.766 75.391 60.7672 74.0308C60.7635 73.4188 60.4824 72.8935 59.9731 72.5531L58.3449 71.4682C57.6913 71.0347 57.4115 70.2586 57.6235 69.5069L58.3351 66.9826C58.549 66.224 59.1909 65.7153 59.9748 65.687L61.9366 65.6085C62.5435 65.5829 63.0578 65.2875 63.3789 64.767C64.0936 63.6079 64.9283 62.5483 65.87 61.6012C66.3043 61.1708 66.4767 60.5991 66.3532 60.0002L65.9716 58.0766C65.8212 57.3071 66.1652 56.5589 66.8462 56.1774L69.1363 54.8946C69.8225 54.5146 70.6417 54.6069 71.2127 55.1408L72.6537 56.471C73.0996 56.8834 73.6789 57.0355 74.2713 56.8952C75.5691 56.5864 76.9119 56.4233 78.2736 56.4193C78.8841 56.4209 79.4094 56.1398 79.7498 55.6304L80.8347 54.0023C81.2683 53.3486 82.0457 53.0637 82.7975 53.2756L85.3217 53.9873C86.0804 54.2012 86.5876 54.8483 86.6159 55.6321L86.6958 57.5887C86.7148 58.1994 87.0154 58.7152 87.5374 59.031C88.6964 59.7457 89.7546 60.5856 90.7017 61.5273C91.1335 61.9564 91.7053 62.1288 92.3027 62.0105L94.2263 61.6289C94.9968 61.4751 95.744 61.8226 96.1255 62.5036L97.4083 64.7937C97.7898 65.4747 97.6975 66.2939 97.1621 66.8701L95.8319 68.311C95.4195 68.757 95.2674 69.3363 95.4077 69.9287C95.7165 71.2264 95.8796 72.5692 95.8836 73.931C95.882 74.5415 96.1631 75.0667 96.6739 75.4019L98.3006 76.4921C98.9543 76.9256 99.2412 77.6961 99.0273 78.4548ZM87.1808 76.4756C87.8704 74.0294 87.5049 71.5369 86.353 69.4805C85.2011 67.4241 83.2663 65.8048 80.8202 65.1152C78.3688 64.4241 75.8748 64.7948 73.8184 65.9467C71.7621 67.0986 70.1479 69.0349 69.4588 71.4793C68.7677 73.9306 69.1332 76.4231 70.2851 78.4795C71.437 80.5359 73.3733 82.15 75.8229 82.8406C78.269 83.5303 80.7615 83.1647 82.8197 82.0133C84.8761 80.8614 86.4902 78.9252 87.1808 76.4756ZM53.7119 87.5028L47.4463 85.7364L47.0378 79.8734L33.3713 76.0205L29.9657 80.8081L23.7001 79.0417C22.9085 78.8185 22.0821 79.2771 21.8589 80.0687C21.6357 80.8604 22.0977 81.6878 22.8911 81.9115L52.9011 90.3721C53.6927 90.5953 54.5202 90.1333 54.7438 89.3399C54.9692 88.547 54.5053 87.7265 53.7119 87.5028ZM55.7466 65.402L10.3584 52.6059L20.163 17.8286C20.8595 15.3582 23.4508 13.911 25.9212 14.6075L85.4777 31.398C87.9481 32.0945 89.4019 34.6821 88.7054 37.1525L84.8691 50.76L83.6053 50.4036C81.607 49.8403 79.508 50.6185 78.3557 52.3457L77.6138 53.4484C76.4707 53.4878 75.3322 53.6241 74.2101 53.855L73.2318 52.9514C71.7112 51.5444 69.4849 51.2785 67.675 52.2937L65.3849 53.5765C63.5748 54.5861 62.6409 56.6223 63.0433 58.6585L63.3011 59.9643C62.5233 60.802 61.8124 61.7017 61.1817 62.6558L59.8501 62.7058C58.0592 62.7763 56.4988 63.8243 55.7466 65.402ZM33.7415 38.7783L44.7354 36.1506C45.5328 35.9612 46.0285 35.1602 45.8391 34.3628C45.6497 33.5654 44.8487 33.0697 44.0513 33.2591L30.484 36.4993C30.2169 36.5627 29.9617 36.6969 29.7533 36.9043C29.1753 37.4853 29.1796 38.4273 29.7607 39.0053L39.6502 48.8699C40.2312 49.4479 41.1723 49.4471 41.7512 48.8626C42.3292 48.2815 42.3249 47.3395 41.7439 46.7615L33.7415 38.7783ZM56.1386 32.0509C55.416 31.6561 54.5126 31.9223 54.1177 32.645L43.1963 52.6377C42.8029 53.3551 43.0692 54.2585 43.7866 54.652C44.5093 55.0468 45.4127 54.7806 45.8076 54.0579L56.7275 34.0704C57.1223 33.3478 56.856 32.4444 56.1386 32.0509ZM55.8722 53.4434L69.458 50.1971C70.2554 50.0077 70.7511 49.2067 70.5618 48.4093C70.4941 48.1241 70.3448 47.8758 70.1501 47.6823L60.2733 37.8325C59.6923 37.2545 58.7503 37.2588 58.1723 37.8398C57.5943 38.4209 57.5986 39.3629 58.1796 39.9409L66.182 47.9241L55.1881 50.5518C54.3907 50.7412 53.895 51.5422 54.0844 52.3396C54.2728 53.1405 55.0748 53.6327 55.8722 53.4434ZM56.6854 73.9445C54.9594 72.7945 54.1852 70.6946 54.7485 68.6964L54.8733 68.2537L9.54931 55.4756L8.01195 60.9287C7.31693 63.3939 8.76927 65.9867 11.2397 66.6832L56.8936 79.5542C57.0159 79.3863 57.1464 79.2225 57.2915 79.0667L58.1934 78.0878C57.9678 76.9672 57.8315 75.8287 57.7868 74.6842L56.6854 73.9445Z" fill="#8DA1E6"/>
</g>
<defs>
<clipPath id="clip0_117_1475">
<rect width="92.3526" height="92.3526" fill="white" transform="translate(25.0598 0.466309) rotate(15.7445)"/>
</clipPath>
</defs>
</svg>
