<svg width="112" height="113" viewBox="0 0 112 113" fill="none" xmlns="http://www.w3.org/2000/svg">
<g opacity="0.4" clip-path="url(#clip0_117_1470)">
<path d="M47.3546 17.8456L15.0569 27.4426C10.5975 28.7676 8.05659 33.4568 9.38165 37.9162L26.976 97.1287C28.3011 101.588 32.9903 104.129 37.4497 102.804L69.7474 93.207C74.2068 91.882 76.7477 87.1928 75.4226 82.7334L57.8282 23.5209C56.5032 19.0614 51.814 16.5206 47.3546 17.8456ZM72.3312 82.1874C73.4336 85.8973 71.3132 89.8126 67.6019 90.9154L37.9957 99.7126C34.2857 100.815 30.37 98.6932 29.2676 94.9832L12.473 38.4622C11.3706 34.7522 13.4924 30.8366 17.2023 29.7342L46.8086 20.937C50.5199 19.8342 54.4343 21.9564 55.5366 25.6663L72.3312 82.1874Z" fill="#8DA1E6"/>
<path d="M47.6083 23.6287L38.1881 26.4278C39.0715 29.4007 37.3775 32.5269 34.4046 33.4102C31.4318 34.2936 28.3056 32.5997 27.4222 29.6268L18.002 32.4259C15.7758 33.0874 14.5029 35.4365 15.1644 37.6627L31.959 94.1837C32.6205 96.41 34.9696 97.6828 37.1959 97.0213L66.8021 88.2242C69.0284 87.5627 70.3012 85.2136 69.6397 82.9873L52.8451 26.4663C52.1836 24.24 49.8345 22.9672 47.6083 23.6287ZM41.7487 69.6684C42.4542 69.9922 42.7633 70.8257 42.4404 71.5295C42.2642 71.9137 41.9384 72.1792 41.5638 72.2905C41.2484 72.3843 40.9006 72.3689 40.5793 72.2212L27.0143 66C26.645 65.8309 26.3684 65.5112 26.2532 65.1235C26.138 64.7358 26.1952 64.3169 26.4121 63.9736L34.3789 51.3544C34.7931 50.6979 35.6581 50.4995 36.3158 50.9176C36.9706 51.3309 37.1668 52.198 36.7526 52.8545L29.6425 64.1164L41.7487 69.6684ZM58.392 56.6765L50.4252 69.2956C50.2367 69.5948 49.9537 69.7976 49.6383 69.8913C49.2637 70.0026 48.8457 69.958 48.4883 69.7324C47.8335 69.3191 47.6374 68.4521 48.0515 67.7955L55.1616 56.5337L43.0555 50.9817C42.35 50.6578 42.0408 49.8243 42.3637 49.1205C42.6864 48.4111 43.5194 48.1049 44.2249 48.4288L57.7899 54.65C58.1591 54.8192 58.4357 55.1389 58.5509 55.5266C58.6661 55.9142 58.609 56.3331 58.392 56.6765Z" fill="#8DA1E6"/>
<path d="M93.6879 50.6422L89.2594 49.6297C89.109 48.5846 88.8882 47.5718 88.5988 46.598C88.3094 45.6241 87.9414 44.6551 87.4967 43.6974L90.6537 40.4309C91.1787 39.8873 91.4622 39.1566 91.4414 38.4034C91.4203 37.6488 91.0994 36.9346 90.5463 36.421L82.267 28.7351C81.1491 27.6971 79.4056 27.7403 78.3369 28.8416L75.1255 32.1657C73.1267 31.3981 71.0199 30.9114 68.8928 30.7225L67.6283 26.4671C67.1867 24.9807 65.6248 24.1333 64.1371 24.5754L61.3195 25.4126L66.1179 41.5615C72.0638 39.7947 78.316 43.1825 80.0828 49.1284C81.8496 55.0743 78.4618 61.3265 72.5159 63.0933L77.3143 79.2421L80.132 78.4049C81.6196 77.9629 82.4654 76.4001 82.0237 74.9137L80.7596 70.6596C82.4381 69.3385 83.937 67.779 85.1926 66.0458L89.6981 67.0769C91.1951 67.4172 92.6793 66.5014 93.0487 65.0201L95.7876 54.0602C95.9705 53.3279 95.8493 52.5544 95.455 51.9107C95.061 51.2683 94.4245 50.811 93.6879 50.6422Z" fill="#8DA1E6"/>
</g>
<defs>
<clipPath id="clip0_117_1470">
<rect width="89.849" height="89.849" fill="white" transform="translate(0 26.0581) rotate(-16.5487)"/>
</clipPath>
</defs>
</svg>
