<svg width="70" height="70" viewBox="0 0 70 70" fill="none" xmlns="http://www.w3.org/2000/svg">
<path d="M24.5437 45.4125C21.1458 48.0812 18.9583 52.2229 18.9583 56.875V61.25H10.2083C7.78742 61.25 5.83325 59.2958 5.83325 56.875V53.9583C5.83325 48.3146 10.3978 43.75 16.0416 43.75H18.9583C21.0291 43.75 22.9395 44.3625 24.5437 45.4125Z" fill="#131414"/>
<path d="M52.5 43.75C56.1244 43.75 59.0625 40.8119 59.0625 37.1875C59.0625 33.5631 56.1244 30.625 52.5 30.625C48.8756 30.625 45.9375 33.5631 45.9375 37.1875C45.9375 40.8119 48.8756 43.75 52.5 43.75Z" fill="#131414"/>
<path d="M17.5 43.75C21.1244 43.75 24.0625 40.8119 24.0625 37.1875C24.0625 33.5631 21.1244 30.625 17.5 30.625C13.8756 30.625 10.9375 33.5631 10.9375 37.1875C10.9375 40.8119 13.8756 43.75 17.5 43.75Z" fill="#131414"/>
<path d="M64.1667 53.9583V56.875C64.1667 59.2958 62.2125 61.25 59.7917 61.25H51.0417V56.875C51.0417 52.2229 48.8542 48.0812 45.4563 45.4125C47.0605 44.3625 48.9709 43.75 51.0417 43.75H53.9584C59.6021 43.75 64.1667 48.3146 64.1667 53.9583Z" fill="#131414"/>
<path d="M35.0001 45.2084C39.4299 45.2084 43.0209 41.6174 43.0209 37.1876C43.0209 32.7578 39.4299 29.1667 35.0001 29.1667C30.5703 29.1667 26.9792 32.7578 26.9792 37.1876C26.9792 41.6174 30.5703 45.2084 35.0001 45.2084Z" fill="#131414"/>
<path d="M36.4583 45.2083H33.5417C27.109 45.2083 21.875 50.4422 21.875 56.8749V61.2499C21.875 63.662 23.8379 65.6249 26.25 65.6249H43.75C46.1621 65.6249 48.125 63.662 48.125 61.2499V56.8749C48.125 50.4422 42.891 45.2083 36.4583 45.2083Z" fill="#131414"/>
<path d="M56.1458 24.3309L52.6269 25.5821C51.6279 25.9365 50.5852 25.1796 50.6144 24.1194L50.7164 20.3861L48.4385 17.4257C47.7925 16.5857 48.1906 15.3592 49.2071 15.0588L52.7902 14.003L54.9018 10.9215C55.5012 10.048 56.7904 10.048 57.3898 10.9215L59.5014 14.003L63.0845 15.0588C64.101 15.3578 64.4991 16.5857 63.8531 17.4257L61.5752 20.3861L61.6773 24.1194C61.7064 25.1782 60.6623 25.9365 59.6648 25.5821L56.1458 24.3309Z" fill="#131414"/>
<path d="M13.8541 24.3309L10.3351 25.5821C9.33614 25.9365 8.29344 25.1796 8.3226 24.1194L8.42469 20.3861L6.14677 17.4257C5.50073 16.5857 5.89886 15.3592 6.91531 15.0588L10.4984 14.003L12.6101 10.9215C13.2095 10.048 14.4986 10.048 15.098 10.9215L17.2097 14.003L20.7928 15.0588C21.8093 15.3578 22.2074 16.5857 21.5613 17.4257L19.2834 20.3861L19.3855 24.1194C19.4147 25.1782 18.3705 25.9365 17.373 25.5821L13.8541 24.3309Z" fill="#131414"/>
<path d="M35.0001 21.0497L30.8278 22.5328C29.6436 22.9543 28.4069 22.0545 28.4419 20.7989L28.563 16.3728L25.8621 12.8626C25.0965 11.8666 25.569 10.4126 26.7736 10.0568L31.0217 8.80407L33.5257 5.15095C34.2359 4.11407 35.7657 4.11407 36.4759 5.15095L38.9799 8.80407L43.228 10.0568C44.4326 10.4126 44.9051 11.8666 44.1394 12.8626L41.4386 16.3728L41.5596 20.7989C41.5946 22.0545 40.3565 22.9543 39.1738 22.5328L35.0001 21.0497Z" fill="#131414"/>
</svg>
