<svg width="70" height="70" viewBox="0 0 70 70" fill="none" xmlns="http://www.w3.org/2000/svg">
<g clip-path="url(#clip0_155_709)">
<path d="M12.3279 42.7946L27.6506 27.4719L31.3107 31.1361C33.0364 32.8705 35.3333 33.826 37.7777 33.826C40.2221 33.826 42.5189 32.8705 44.2454 31.1354C47.7957 27.5672 47.7957 21.7615 44.2454 18.1933L38.5066 12.4394L41.3574 9.93236C48.5283 3.64835 59.4357 4.36736 65.7197 11.5383C72.0037 18.7092 71.2847 29.6166 64.1138 35.9006L60.018 39.686L55.471 35.1391C52.8255 32.4935 48.5209 32.4935 45.8755 35.1391C44.6139 36.4006 43.9118 38.0718 43.8902 39.8524C42.1819 39.8743 40.4805 40.534 39.18 41.8344C37.8788 43.1357 37.219 44.8384 37.198 46.5476C35.4887 46.5686 33.786 47.2284 32.4847 48.5297C29.8394 51.1752 29.8392 55.4798 32.4846 58.1253L36.1264 61.7669L33.0465 64.6134C30.9454 66.4548 27.7493 66.2441 25.908 64.1428C24.0667 62.0418 24.2774 58.8457 26.3786 57.0045C24.2775 58.8458 21.0814 58.6351 19.2402 56.5339C17.3989 54.4328 17.6096 51.2367 19.7108 49.3955L19.7106 49.3953C17.6095 51.2366 14.4134 51.0259 12.5721 48.9247C10.9942 47.1241 11.0855 44.8509 12.3279 42.7946Z" fill="#131414"/>
<path d="M5.05649 9.18883C11.7986 2.44682 22.7296 2.44682 29.4717 9.18883L41.3381 21.0866C42.7552 22.511 43.1905 24.7034 42.4431 26.5652C41.6299 28.5907 39.5355 29.8876 37.359 29.7069C36.1589 29.6072 35.0283 29.068 34.1852 28.2101L27.6525 21.67L10.3874 38.9349L5.05663 33.6039C-1.68552 26.8619 -1.68552 15.9308 5.05649 9.18883Z" fill="#131414"/>
<path d="M54.6255 47.6841L48.7757 41.8343C48.2689 41.3275 47.9897 40.6536 47.9897 39.9368C47.9897 39.22 48.2689 38.5462 48.7757 38.0393C49.2988 37.5162 49.9863 37.2546 50.6733 37.2546C51.3605 37.2546 52.0476 37.5162 52.5708 38.0394L58.4204 43.8891C59.4626 44.9313 59.4659 46.6242 58.4316 47.6716C58.4146 47.6885 58.3969 47.7045 58.3797 47.721C57.8777 48.2034 57.2213 48.4701 56.5229 48.4701C55.8062 48.4701 55.1323 48.1909 54.6255 47.6841Z" fill="#131414"/>
<path d="M47.9301 54.3795L42.0803 48.5298C41.5735 48.0228 41.2944 47.3491 41.2944 46.6322C41.2944 45.9154 41.5736 45.2417 42.0803 44.7347C42.5872 44.2279 43.261 43.9487 43.9778 43.9487C44.6946 43.9487 45.3685 44.2279 45.8753 44.7347L51.7251 50.5845C52.2319 51.0915 52.5111 51.7652 52.5111 52.482C52.5111 53.1949 52.2347 53.8648 51.7332 54.3708C51.7221 54.3817 51.7106 54.392 51.6995 54.4028C50.6512 55.4244 48.9682 55.4175 47.9301 54.3795Z" fill="#131414"/>
<path d="M41.2348 61.0749L35.385 55.2252C34.3389 54.1789 34.3387 52.4763 35.385 51.4302C35.892 50.9234 36.5657 50.644 37.2825 50.644C37.9994 50.644 38.6732 50.9232 39.1801 51.43L45.0298 57.2798C45.5367 57.7868 45.8158 58.4605 45.8158 59.1773C45.8158 59.8921 45.538 60.5641 45.0338 61.0705C45.0283 61.076 45.0227 61.0809 45.0173 61.0862C43.9699 62.1204 42.2771 62.1171 41.2348 61.0749Z" fill="#131414"/>
</g>
<defs>
<clipPath id="clip0_155_709">
<rect width="70" height="70" fill="white"/>
</clipPath>
</defs>
</svg>
