<svg width="139" height="140" viewBox="0 0 139 140" fill="none" xmlns="http://www.w3.org/2000/svg">
<path fill-rule="evenodd" clip-rule="evenodd" d="M27.8011 75.5771C33.631 75.5771 38.3572 78.8996 38.3572 86.562C38.3572 94.2243 33.631 100.436 27.8011 100.436C21.971 100.436 17.2453 94.2243 17.2453 86.562C17.2453 78.8996 21.9713 75.5771 27.8011 75.5771ZM49.0252 77.3185C51.3217 77.3185 53.1833 79.18 53.1833 81.4765C53.1833 83.773 51.3217 85.6346 49.0252 85.6346C46.7287 85.6346 44.8672 83.773 44.8672 81.4765C44.8672 79.18 46.7287 77.3185 49.0252 77.3185ZM93.9333 4.99121C116.424 4.99121 134.656 23.2233 134.656 45.7139C134.656 68.2044 116.424 86.4365 93.9333 86.4365C83.3389 86.4365 73.6904 82.3898 66.4466 75.759C65.3645 76.7798 63.9058 77.4056 62.3005 77.4056C58.9624 77.4056 56.2562 74.6997 56.2562 71.3615C56.2562 69.3059 57.2827 67.4902 58.8508 66.3983C55.2683 60.336 53.2107 53.2657 53.2107 45.7139C53.2107 23.2236 71.4428 4.99121 93.9333 4.99121ZM89.7359 44.7354C88.0725 44.7354 86.4092 44.7354 84.746 44.7354C84.0872 44.7354 83.5499 45.2727 83.5499 45.9316V65.1223C83.5499 65.7812 84.0872 66.3187 84.746 66.3187H89.7359C90.3948 66.3187 90.9321 65.7812 90.9321 65.1223C90.9321 58.3352 90.9321 52.7184 90.9321 45.9316C90.9321 45.2727 90.3948 44.7354 89.7359 44.7354ZM112.162 30.0164C111.503 30.0164 110.965 30.5536 110.965 31.2128V65.1223C110.965 65.7812 111.503 66.3184 112.162 66.3184H117.152C117.81 66.3184 118.348 65.7812 118.348 65.1223V31.2128C118.348 30.5539 117.81 30.0164 117.152 30.0164H112.162ZM71.038 52.1556C70.3791 52.1556 69.8418 52.6932 69.8418 53.3521V65.1226C69.8418 65.7814 70.3794 66.3187 71.038 66.3187H76.0279C76.6868 66.3187 77.224 65.7814 77.224 65.1226V53.3521C77.224 52.6932 76.6868 52.1556 76.0279 52.1556H71.038ZM103.444 36.987H98.4538C97.7949 36.987 97.2577 37.5243 97.2577 38.1832V65.1226C97.2577 65.7814 97.7949 66.3187 98.4538 66.3187H103.444C104.103 66.3187 104.64 65.7814 104.64 65.1226V38.1832C104.64 37.5243 104.103 36.987 103.444 36.987ZM72.6881 40.6357L85.6626 29.3355L93.3703 33.1376C94.1519 33.5234 95.0698 33.3247 95.628 32.7103L106.401 21.5078L106.262 23.2105C106.18 24.2633 106.966 25.1842 108.019 25.2668C109.072 25.3493 109.993 24.5625 110.076 23.5097L110.649 16.4679C110.658 16.3479 110.657 16.2255 110.642 16.1017C110.523 15.0527 109.575 14.2996 108.526 14.4193L101.51 15.2468C100.461 15.3663 99.7081 16.314 99.8278 17.3628C99.9475 18.4118 100.895 19.1649 101.944 19.0451L103.668 18.8418L93.8071 29.0952L86.3234 25.4039C85.6349 25.0042 84.7406 25.0642 84.1067 25.6159L70.1752 37.7496C69.3784 38.4432 69.2945 39.6519 69.9882 40.449C70.6826 41.2458 71.891 41.3294 72.6881 40.6357ZM7.05835 135.304H12.8309V118.893C12.8309 117.694 13.8034 116.721 15.0028 116.721C16.2022 116.721 17.1747 117.694 17.1747 118.893V135.304H38.4276V118.893C38.4276 117.694 39.4 116.721 40.5994 116.721C41.7988 116.721 42.7713 117.694 42.7713 118.893V135.304H48.5442C50.0395 135.304 51.259 134.084 51.259 132.589V113.995C51.259 108.775 46.6096 105.81 41.3194 104.498C32.4367 102.294 23.4316 102.145 14.2834 104.498C9.00571 105.854 4.34351 108.772 4.34351 113.995V132.589C4.34351 134.084 5.56301 135.304 7.05835 135.304Z" fill="#8DA1E6"/>
</svg>
