<svg width="60" height="61" viewBox="0 0 60 61" fill="none" xmlns="http://www.w3.org/2000/svg">
<g clip-path="url(#clip0_158_889)">
<path d="M24.7256 35.2125C24.7256 34.2415 23.9384 33.4544 22.9675 33.4544H22.3534L16.3321 19.8623C15.1763 20.1662 14.012 20.4325 12.8409 20.6628L18.5076 33.4544H6.32972L11.9197 20.8361C10.5589 21.0803 9.18986 21.2757 7.81499 21.4203L2.48385 33.4544H1.86979C0.898828 33.4544 0.111651 34.2415 0.111651 35.2125C0.0856303 41.2547 6.5312 45.3102 12.4186 45.1752C18.3049 45.3117 24.7534 41.2531 24.7256 35.2125Z" fill="#ECF9FF"/>
<path d="M58.1303 33.4544H57.5163L52.1851 21.4203C50.8103 21.2757 49.4413 21.0803 48.0805 20.8361L53.6704 33.4544H41.4926L47.1592 20.6628C45.9882 20.4326 44.8237 20.1662 43.668 19.8623L37.6466 33.4544H37.0326C36.0616 33.4544 35.2744 34.2415 35.2744 35.2125C35.2744 37.9586 36.6127 40.5118 39.0428 42.4019C43.5749 46.0739 51.5878 46.0742 56.1198 42.4018C58.5499 40.5118 59.8882 37.9586 59.8882 35.2125C59.8885 34.2415 59.1013 33.4544 58.1303 33.4544Z" fill="#ECF9FF"/>
<path d="M1.87131 18.2169C6.69635 18.2169 11.5003 17.562 16.1497 16.2707C25.2107 13.7537 34.7894 13.7537 43.8504 16.2707C48.4997 17.5622 53.3036 18.2169 58.1286 18.2169C60.1229 18.2169 60.5765 15.4217 58.6845 14.791H58.6844C54.1211 13.2698 49.6752 11.3142 45.4703 8.9781L42.6927 7.43504C39.3329 5.56849 35.5847 4.4659 31.758 4.20628V2.39399C31.6715 0.0637541 28.3274 0.0655124 28.2418 2.39399V4.20628C24.415 4.4659 20.6669 5.56849 17.3071 7.43504L14.5292 8.9781C10.3244 11.3142 5.87869 13.2698 1.31527 14.791H1.31515C-0.576605 15.4217 -0.123005 18.2169 1.87131 18.2169Z" fill="#ECF9FF"/>
<path d="M37.0326 53.6143H22.9675C20.0545 53.6143 17.6931 55.9757 17.6931 58.8887C17.6931 59.8596 18.4803 60.6468 19.4513 60.6468H40.5489C41.5199 60.6468 42.3071 59.8596 42.3071 58.8887C42.3071 55.9757 39.9456 53.6143 37.0326 53.6143Z" fill="#ECF9FF"/>
<path d="M28.2419 50.0981H31.7582V17.9321C30.5874 17.8885 29.4127 17.8885 28.2419 17.9321V50.0981Z" fill="#ECF9FF"/>
</g>
<defs>
<clipPath id="clip0_158_889">
<rect width="60" height="60" fill="white" transform="translate(0 0.646973)"/>
</clipPath>
</defs>
</svg>
