<svg width="74" height="75" viewBox="0 0 74 75" fill="none" xmlns="http://www.w3.org/2000/svg">
<path fill-rule="evenodd" clip-rule="evenodd" d="M11.7829 19.5306C13.0451 17.5104 14.7981 15.4906 15.0538 14.4379L17.0416 6.2557C17.5521 4.1544 19.6889 2.85282 21.7902 3.36331C23.8913 3.8738 25.1929 6.01073 24.6824 8.11187L22.5775 17.0369C22.4561 17.5514 22.6138 18.0545 23.0067 18.4081C23.3998 18.7617 23.6616 18.706 26.3275 18.7241L36.0001 18.711C38.0434 18.89 38.7454 20.0268 38.7372 21.6433C38.729 23.2602 37.3648 24.7558 35.1201 24.5665C36.6238 24.8886 37.5456 25.9015 37.5375 27.5181C37.5293 29.1349 36.165 30.4522 33.6415 30.4428C34.4495 30.7734 35.7882 31.7794 35.78 33.3959C35.7718 35.0127 34.4076 36.33 31.9211 36.3208C32.6866 36.7466 34.1048 37.6577 34.0967 39.2742C34.0885 40.891 32.7242 42.2084 31.1442 42.2429L14.7535 42.2856C13.8063 42.2856 12.9903 41.7035 12.6505 40.9L12.6353 21.9094C12.6347 21.008 12.3127 20.1801 11.7829 19.5306ZM65.157 71.9943L69.6705 72.0054C70.6497 72.0079 71.4505 71.2117 71.454 70.2324C71.4751 64.1123 71.4964 57.992 71.5175 51.8719C71.5209 50.8823 70.7324 50.0892 69.7428 50.0867L65.2293 50.0757C64.2501 50.0732 63.4492 50.8693 63.4458 51.8487C63.4247 57.9688 63.4034 64.089 63.3823 70.2091C63.3788 71.1989 64.1673 71.9919 65.157 71.9943ZM62.2869 49.4626C61.0247 47.4425 59.2717 45.4225 59.0159 44.3699L57.0281 36.1877C56.5176 34.0864 54.3807 32.7849 52.2796 33.2954C50.1783 33.8058 48.8768 35.9426 49.3873 38.0439L51.4922 46.9689C51.6136 47.4834 51.456 47.9866 51.063 48.3402C50.6701 48.6936 50.4083 48.638 47.7422 48.6561L38.0696 48.6431C36.0264 48.8221 35.3244 49.9589 35.3326 51.5754C35.3408 53.1922 36.705 54.6879 38.9497 54.4985C37.4459 54.8206 36.5241 55.8336 36.5323 57.4501C36.5405 59.067 37.9047 60.3843 40.4283 60.3748C39.6202 60.7054 38.2816 61.7114 38.2896 63.328C38.2978 64.9448 39.662 66.262 42.1485 66.2528C41.383 66.6787 39.9648 67.5896 39.9729 69.2061C39.9811 70.8231 41.3454 72.1403 42.9254 72.1749L59.3161 72.2179C60.2632 72.2179 61.0793 71.6359 61.4191 70.8323L61.4343 51.8418C61.4352 50.94 61.757 50.1123 62.2869 49.4626ZM8.91275 42.0623L4.39924 42.0734C3.42007 42.0758 2.61921 41.2797 2.61576 40.3004C2.59464 34.1803 2.57338 28.06 2.55226 21.9397C2.54881 20.9499 3.33731 20.157 4.32697 20.1545L8.84048 20.1435C9.81964 20.141 10.6205 20.9372 10.624 21.9165C10.6451 28.0366 10.6663 34.1568 10.6875 40.2771C10.6909 41.2668 9.9024 42.0599 8.91275 42.0623Z" fill="#EBF3FF"/>
</svg>
